<svg xmlns="http://www.w3.org/2000/svg" xmlns:xlink="http://www.w3.org/1999/xlink" viewBox="0 0 74.375 85" fill="#fff" fill-rule="evenodd" stroke="#000" stroke-linecap="round" stroke-linejoin="round"><use xlink:href="#A" x="2.188" y="2.5"/><symbol id="A" overflow="visible"><g stroke="none"><path d="M35 0L0 16.663v46.673L35 80l35-16.663V16.663L35 0z" fill="#205b99"/><path d="M35 0v80l35-16.663V16.663L35 0z" fill="#5294cf"/><path d="M2.755 20.819l2.499 3.073 10.274-.956 13.336-3.532V11.15L2.755 20.819zm26.109 2.742v7.961L5.5 33.19l-2.745-4.117 26.109-5.512zm0 12.312v2l-9.567 3.239-16.542-3.854 26.109-1.385zm12.241-13.717V11.151l26.314 9.785-4.036 8.459-4.159-3.093-18.12-4.146zm4.128 7.786v7.073l2.684.107 5.357 2.907 3.155-8.527-11.196-1.561z" fill="#19486f"/><path d="M2.755 26.313V20.82l12.773 2.117-12.773 3.376zm0 8.263l26.109-2.751v-.303L2.755 29.073v5.502zm0 8.166l23.2.507 2.909-1.122v-4.254l-26.109-.615v5.483zm26.109 5.755v-.263L2.755 45.473v5.483l22.186 2.38 3.923-4.839zm-13.356 8.576L2.745 53.834l.01 5.337 11.779 2.078.973-4.176z" fill="#5294cf"/><path d="M28.864 44.127v-2l-26.109.615 26.109 1.385zm0 12.361v-7.99L2.755 50.957l26.109 5.532zm-7.825 2.048l-5.531-1.463-12.753 2.098 18.284 6.78v-7.415z" fill="#99bce3"/><path d="M67.418 20.937l-8.194 5.366v27.356l-1.393 4.566 9.567.878.02-38.166zm-10.99 10.565l-8.512 5.619v5.756 4.273l8.512 1.483V31.502z" fill="#205b99"/><path d="M47.917 42.878l-2.684.137v7.161l11.196-1.541-8.512-5.756zM41.105 68.84l26.294-9.737-8.174-5.444-18.12 4.293V68.84z" fill="#99bce3"/></g></symbol></svg>